<svg width="29" height="23" viewBox="0 0 29 23" fill="none" xmlns="http://www.w3.org/2000/svg">
<path d="M28.1446 16.2533C28.1446 19.6531 25.0538 22.4072 21.2042 22.4194H21.1904H7.51643C3.68055 22.4194 0.54837 19.6775 0.54837 16.2776V16.2655C0.54837 16.2655 0.556649 10.8719 0.567688 8.15934C0.569068 7.64997 1.23138 7.36482 1.68258 7.68165C4.96101 9.97871 10.8238 14.167 10.897 14.2219C11.8766 14.9152 13.1185 15.3064 14.3879 15.3064C15.6573 15.3064 16.8992 14.9152 17.8788 14.2085C17.9519 14.1658 23.6837 10.103 27.0118 7.76817C27.4644 7.45012 28.1294 7.73527 28.1308 8.24343C28.1446 10.9353 28.1446 16.2533 28.1446 16.2533Z" fill="#1B5F10"/>
<path d="M27.4218 3.74238C26.2269 1.75363 23.8757 0.483856 21.2872 0.483856H7.51662C4.92809 0.483856 2.57689 1.75363 1.38197 3.74238C1.11429 4.18717 1.24123 4.74163 1.68691 5.05603L11.932 12.2933C12.6495 12.8051 13.5188 13.0598 14.3881 13.0598C14.3936 13.0598 14.3977 13.0598 14.4019 13.0598C14.406 13.0598 14.4115 13.0598 14.4157 13.0598C15.285 13.0598 16.1542 12.8051 16.8718 12.2933L27.1169 5.05603C27.5625 4.74163 27.6895 4.18717 27.4218 3.74238Z" fill="#1B5F10"/>
</svg>
