<svg width="20" height="23" viewBox="0 0 20 23" fill="none" xmlns="http://www.w3.org/2000/svg">
<path d="M18.2956 11.0626C17.4944 10.127 17.1303 9.31624 17.1303 7.9388V7.47045C17.1303 5.67548 16.7172 4.51896 15.819 3.36244C14.4347 1.56636 12.1041 0.483856 9.82269 0.483856H9.72568C7.49218 0.483856 5.2347 1.51666 3.82637 3.23983C2.87912 4.41955 2.41804 5.62577 2.41804 7.47045V7.9388C2.41804 9.31624 2.07794 10.127 1.25278 11.0626C0.645627 11.7519 0.451599 12.6378 0.451599 13.5966C0.451599 14.5565 0.766621 15.4656 1.39885 16.2045C2.22401 17.0904 3.38926 17.656 4.57959 17.7543C6.30294 17.9509 8.0263 18.0249 9.77473 18.0249C11.5221 18.0249 13.2454 17.9012 14.9699 17.7543C16.1591 17.656 17.3244 17.0904 18.1495 16.2045C18.7807 15.4656 19.0968 14.5565 19.0968 13.5966C19.0968 12.6378 18.9027 11.7519 18.2956 11.0626Z" fill="#1B5F10"/>
<path d="M11.9773 19.3795C11.429 19.2624 8.088 19.2624 7.53971 19.3795C7.07099 19.4878 6.56412 19.7396 6.56412 20.2919C6.59137 20.8188 6.89985 21.2838 7.32715 21.5788L7.32606 21.5799C7.87871 22.0107 8.52728 22.2846 9.20638 22.3829C9.56827 22.4326 9.93671 22.4304 10.3117 22.3829C10.9897 22.2846 11.6383 22.0107 12.1909 21.5799L12.1898 21.5788C12.6171 21.2838 12.9256 20.8188 12.9529 20.2919C12.9529 19.7396 12.446 19.4878 11.9773 19.3795Z" fill="#1B5F10"/>
</svg>
